<?xml version="1.0" standalone="no"?>
<!DOCTYPE svg PUBLIC "-//W3C//DTD SVG 20010904//EN"
 "http://www.w3.org/TR/2001/REC-SVG-20010904/DTD/svg10.dtd">
<svg version="1.0" xmlns="http://www.w3.org/2000/svg"
 width="512.000000pt" height="512.000000pt" viewBox="0 0 512.000000 512.000000"
 preserveAspectRatio="xMidYMid meet">
<metadata>
Created by potrace 1.11, written by Peter Selinger 2001-2013
</metadata>
<g transform="translate(0.000000,512.000000) scale(0.100000,-0.100000)"
fill="#000000" stroke="none">
<path d="M837 4676 c-58 -21 -114 -62 -147 -108 -50 -69 -60 -121 -60 -320 l0
-177 -32 -17 c-18 -9 -54 -37 -81 -62 -57 -56 -87 -128 -87 -210 0 -31 45
-389 100 -794 l100 -737 -51 -743 c-28 -409 -48 -770 -46 -803 8 -111 72 -200
177 -249 l55 -26 1795 0 1795 0 60 28 c100 48 164 140 172 247 2 33 -18 394
-46 802 l-51 741 50 374 c28 205 73 538 100 739 54 398 58 452 34 522 -19 56
-92 141 -145 167 l-37 20 -4 197 c-3 193 -4 199 -31 255 -30 61 -74 105 -140
140 l-42 23 -1700 2 c-1412 2 -1706 0 -1738 -11z m1516 -2466 c31 -23 72 -61
92 -86 129 -170 104 -452 -55 -614 -223 -228 -684 -207 -879 40 -46 58 -78
138 -90 221 l-8 59 102 0 102 0 12 -62 c21 -108 81 -182 180 -224 56 -23 153
-33 230 -23 172 21 269 127 279 303 9 144 -33 245 -126 305 -70 45 -147 61
-289 61 l-123 0 0 30 0 30 258 0 259 0 56 -40z"/>
</g>
</svg>
